<?xml version="1.0" standalone="no"?>
<!DOCTYPE svg PUBLIC "-//W3C//DTD SVG 20010904//EN"
 "http://www.w3.org/TR/2001/REC-SVG-20010904/DTD/svg10.dtd">
<svg version="1.0" xmlns="http://www.w3.org/2000/svg"
 width="343.000000pt" height="321.000000pt" viewBox="0 0 343.000000 321.000000"
 preserveAspectRatio="xMidYMid meet">

<g transform="translate(0.000000,321.000000) scale(0.100000,-0.100000)"
fill="#000000" stroke="none">
<path d="M0 1605 l0 -1605 1715 0 1715 0 0 1605 0 1605 -1715 0 -1715 0 0
-1605z m1895 1586 c7 -12 -12 -24 -25 -16 -11 7 -4 25 10 25 5 0 11 -4 15 -9z
m95 -12 c0 -5 -7 -9 -15 -9 -15 0 -20 12 -9 23 8 8 24 -1 24 -14z m-652 -1
c16 -16 15 -28 -3 -28 -8 0 -15 5 -15 10 0 6 -9 10 -20 10 -17 0 -20 -7 -20
-40 0 -33 3 -40 20 -40 11 0 20 5 20 10 0 6 6 10 13 10 8 0 19 12 25 26 10 21
18 25 45 22 30 -3 32 -5 32 -43 0 -37 -2 -40 -30 -43 -18 -2 -33 2 -41 12 -10
14 -13 15 -24 1 -15 -18 -61 -20 -78 -3 -16 16 -16 80 0 96 7 7 24 12 38 12
14 0 31 -5 38 -12z m602 -8 c0 -5 11 -10 25 -10 23 0 25 -4 25 -46 l0 -45 -37
3 c-35 3 -38 6 -41 36 -4 43 -22 41 -22 -3 0 -19 -4 -35 -10 -35 -5 0 -10 20
-10 45 0 38 3 45 20 45 11 0 20 5 20 10 0 6 7 10 15 10 8 0 15 -4 15 -10z
m-359 -28 c1 -15 2 -15 6 1 6 23 81 25 89 2 6 -14 8 -14 18 1 8 10 23 14 41
12 28 -3 30 -6 30 -43 0 -37 -2 -40 -30 -43 -19 -3 -33 2 -42 14 -11 16 -13
16 -19 1 -3 -10 -17 -17 -30 -17 -17 0 -24 -6 -24 -20 0 -11 -5 -20 -11 -20
-6 0 -13 9 -16 20 -3 11 -12 20 -19 20 -9 0 -14 12 -14 35 0 24 -5 35 -15 35
-10 0 -15 -11 -15 -35 0 -24 -5 -35 -15 -35 -10 0 -15 11 -15 35 0 19 -4 35
-10 35 -5 0 -10 -16 -10 -35 0 -24 -5 -35 -15 -35 -11 0 -15 12 -15 45 l0 44
65 0 c53 -1 65 -4 66 -17z m273 2 c5 -13 1 -15 -19 -10 -33 8 -32 -2 1 -14 38
-15 28 -45 -15 -45 -19 0 -36 6 -39 13 -3 9 3 11 22 6 33 -8 34 3 1 16 -24 9
-32 29 -18 43 13 14 61 7 67 -9z m224 4 c28 -28 7 -78 -33 -78 -27 0 -45 18
-45 45 0 27 18 45 45 45 12 0 26 -5 33 -12z m100 -20 c2 -18 11 -28 29 -33 35
-8 42 2 9 15 -38 14 -31 44 10 48 22 2 33 -2 38 -14 5 -13 2 -15 -19 -10 -33
8 -32 -2 1 -14 34 -13 28 -44 -9 -48 -16 -2 -35 2 -43 9 -10 8 -14 8 -14 0 0
-6 -7 -11 -15 -11 -10 0 -15 11 -15 35 0 19 -4 35 -10 35 -5 0 -10 -16 -10
-35 0 -24 -5 -35 -15 -35 -11 0 -15 12 -15 46 l0 45 38 -3 c32 -3 37 -7 40
-30z m-365 -132 c79 -33 114 -121 78 -200 -25 -58 -69 -86 -136 -86 -67 0
-111 28 -136 86 -56 126 67 253 194 200z m373 -585 l429 -248 2 -499 3 -499
-427 -245 c-235 -135 -432 -245 -438 -245 -6 0 -203 110 -438 245 l-427 245 0
500 0 500 428 247 c235 135 430 247 433 247 3 1 199 -111 435 -248z m524 109
c0 -5 -11 -10 -25 -10 -16 0 -25 -6 -25 -15 0 -9 10 -15 26 -15 14 0 23 -4 19
-10 -3 -5 -15 -10 -26 -10 -10 0 -19 -7 -19 -15 0 -9 9 -15 25 -15 14 0 25 -4
25 -10 0 -5 -18 -10 -40 -10 l-40 0 0 60 0 60 40 0 c22 0 40 -4 40 -10z
m-2203 -70 c18 -49 19 -60 7 -60 -8 0 -17 7 -20 15 -4 8 -14 15 -24 15 -10 0
-20 -7 -24 -15 -3 -8 -12 -15 -20 -15 -12 0 -11 11 7 60 14 37 28 60 37 60 9
0 23 -23 37 -60z m571 33 c12 -12 13 -18 4 -21 -6 -2 -12 -14 -12 -26 0 -19 6
-22 35 -22 l35 0 -25 21 c-17 13 -22 24 -16 33 10 17 63 12 69 -7 4 -11 -2
-12 -24 -7 l-29 6 28 -16 c48 -26 32 -49 -36 -51 -54 -2 -57 -1 -63 25 -10 46
-12 48 -13 10 -1 -27 -5 -38 -16 -38 -10 0 -15 11 -15 35 0 24 -5 35 -15 35
-10 0 -15 -11 -15 -35 0 -19 -4 -35 -10 -35 -5 0 -10 21 -10 46 l0 46 42 -3
c26 -2 43 1 46 9 5 17 20 15 40 -5z m1710 5 c9 -9 15 -9 24 0 28 28 78 7 78
-33 0 -27 -18 -45 -45 -45 -12 0 -26 5 -33 12 -9 9 -15 9 -24 0 -36 -36 -93
11 -69 57 13 23 50 28 69 9z m190 -35 c2 -34 0 -43 -12 -43 -12 0 -16 10 -16
35 0 24 -5 35 -15 35 -10 0 -15 -11 -15 -35 0 -19 -4 -35 -10 -35 -5 0 -10 21
-10 46 l0 45 38 -3 c36 -3 37 -4 40 -45z m-2418 -8 c0 -19 5 -35 10 -35 6 0
10 16 10 35 0 24 5 35 15 35 11 0 15 -12 15 -46 l0 -45 -37 3 c-37 3 -38 4
-41 46 -2 33 0 42 12 42 12 0 16 -10 16 -35z m287 19 c5 -15 7 -15 15 0 17 30
78 14 78 -21 0 -8 -12 -13 -31 -13 -18 0 -28 -4 -24 -10 4 -6 15 -10 25 -8 11
2 20 -1 22 -7 6 -19 -55 -18 -69 1 -12 16 -13 16 -13 1 0 -9 -7 -17 -15 -17
-10 0 -15 11 -15 35 0 19 -4 35 -10 35 -5 0 -10 -16 -10 -35 0 -24 -5 -35 -15
-35 -10 0 -15 11 -15 35 0 24 -5 35 -15 35 -10 0 -15 -11 -15 -35 0 -27 -4
-35 -18 -35 -9 0 -23 -9 -30 -21 -14 -22 -52 -23 -60 0 -3 9 1 11 16 7 11 -4
23 -2 27 4 4 6 -4 10 -18 10 -14 0 -28 7 -31 16 -8 21 -8 59 1 67 3 4 53 7
110 7 86 0 105 -3 110 -16z m-97 -173 c98 -52 110 -195 21 -257 -82 -58 -204
-18 -232 76 -38 128 96 243 211 181z m2159 -8 c48 -37 66 -71 66 -128 0 -39
-6 -61 -21 -82 -66 -88 -199 -86 -255 3 -26 42 -25 119 1 162 41 66 148 89
209 45z m-2162 -983 c55 -25 83 -70 83 -135 0 -132 -146 -196 -250 -109 -58
49 -64 144 -13 205 50 59 109 72 180 39z m2198 -349 c7 -12 -12 -24 -25 -16
-11 7 -4 25 10 25 5 0 11 -4 15 -9z m-445 -11 c0 -5 -11 -10 -25 -10 -16 0
-25 -6 -25 -15 0 -9 9 -15 25 -15 14 0 25 -4 25 -10 0 -5 -11 -10 -25 -10 -36
0 -32 -27 5 -32 39 -6 59 15 42 43 -16 24 -15 29 3 29 8 0 15 -5 15 -12 0 -9
3 -9 12 0 7 7 18 12 26 12 12 0 12 -3 -1 -23 -13 -20 -13 -25 1 -45 12 -19 12
-22 0 -22 -8 0 -19 5 -26 12 -9 9 -12 9 -12 0 0 -8 -20 -12 -60 -12 l-60 0 0
60 0 60 40 0 c22 0 40 -4 40 -10z m398 -17 c12 -12 13 -18 4 -21 -14 -4 -16
-52 -2 -52 6 0 10 -4 10 -10 0 -5 -9 -10 -20 -10 -13 0 -22 9 -26 28 -10 47
-12 48 -13 10 -1 -37 -2 -38 -41 -38 l-40 0 0 45 c0 25 5 45 10 45 6 0 10 -16
10 -35 0 -24 5 -35 15 -35 10 0 15 11 15 35 0 28 4 35 20 35 11 0 20 5 20 10
0 15 20 12 38 -7z m-2388 -8 c0 -8 5 -15 10 -15 6 0 10 5 10 10 0 15 19 12 36
-4 9 -9 10 -17 4 -21 -14 -9 -13 -48 3 -64 10 -10 7 -12 -13 -9 -19 2 -26 10
-28 33 -6 49 -22 54 -22 7 0 -31 -4 -42 -15 -42 -12 0 -15 13 -15 60 0 47 3
60 15 60 8 0 15 -7 15 -15z m2156 -10 c6 -14 8 -14 18 1 14 19 67 16 74 -4 3
-9 -5 -12 -24 -10 -23 2 -29 -1 -29 -17 0 -16 6 -19 29 -17 19 2 27 -1 24 -10
-3 -7 -19 -14 -37 -16 -26 -3 -34 1 -38 17 -4 15 -13 21 -34 21 -16 0 -29 -4
-29 -10 0 -5 12 -10 26 -10 14 0 23 -4 19 -10 -9 -14 -48 -13 -63 2 -7 7 -12
21 -12 33 0 12 5 26 12 33 17 17 58 15 64 -3z m274 -30 c0 -25 -4 -45 -10 -45
-5 0 -10 20 -10 45 0 25 5 45 10 45 6 0 10 -20 10 -45z m88 33 c28 -28 7 -78
-33 -78 -27 0 -45 18 -45 45 0 27 18 45 45 45 12 0 26 -5 33 -12z m100 -35 c2
-34 0 -43 -12 -43 -12 0 -16 10 -16 35 0 19 -4 35 -10 35 -5 0 -10 -16 -10
-35 0 -24 -5 -35 -15 -35 -11 0 -15 12 -15 46 l0 45 38 -3 c36 -3 37 -4 40
-45z m-2468 5 l9 -23 0 23 c1 20 5 22 65 22 63 0 65 0 71 -30 4 -16 10 -30 15
-30 5 0 17 -3 27 -6 12 -4 9 2 -9 17 -19 16 -25 28 -19 37 10 17 63 12 69 -7
4 -11 -2 -12 -24 -7 l-29 6 28 -16 c46 -25 32 -49 -31 -51 l-52 -1 0 34 c0 24
-5 34 -15 34 -10 0 -15 -11 -15 -35 0 -24 -5 -35 -15 -35 -10 0 -15 11 -15 35
0 19 -4 35 -10 35 -5 0 -10 -16 -10 -35 0 -24 -5 -35 -15 -35 -8 0 -15 9 -15
20 0 16 -7 20 -30 20 -16 0 -30 -4 -30 -10 0 -5 12 -10 26 -10 14 0 23 -4 19
-10 -9 -14 -48 -13 -63 2 -15 15 -15 51 0 66 20 20 58 14 68 -10z m1157 -278
c77 -34 109 -117 75 -194 -36 -80 -117 -112 -196 -78 -49 22 -82 64 -92 119
-10 52 30 123 86 151 54 27 73 27 127 2z m-287 -415 c0 -51 -3 -65 -15 -65
-11 0 -15 12 -15 50 0 49 -1 50 -30 50 -20 0 -30 -5 -30 -15 0 -9 9 -15 25
-15 14 0 25 -4 25 -10 0 -5 -11 -10 -25 -10 -20 0 -25 -5 -25 -25 0 -16 -6
-25 -15 -25 -12 0 -15 13 -15 59 l0 60 48 4 c26 2 53 4 60 5 8 1 12 -17 12
-63z m211 42 c-13 -13 -26 -3 -16 12 3 6 11 8 17 5 6 -4 6 -10 -1 -17z m39 4
c0 -14 8 -21 28 -23 24 -3 27 -7 27 -43 0 -39 -1 -40 -37 -43 l-38 -3 0 65 c0
37 4 66 10 66 6 0 10 -9 10 -19z m100 -2 c0 -5 -7 -9 -15 -9 -15 0 -20 12 -9
23 8 8 24 -1 24 -14z m40 -44 c0 -51 -3 -65 -15 -65 -12 0 -15 14 -15 65 0 51
3 65 15 65 12 0 15 -14 15 -65z m45 56 c7 -12 -12 -24 -25 -16 -11 7 -4 25 10
25 5 0 11 -4 15 -9z m45 -21 c0 -5 9 -10 20 -10 12 0 24 -9 29 -22 l8 -23 7
23 c4 12 14 22 22 22 11 0 13 -6 8 -22 -19 -61 -45 -108 -59 -108 -18 0 -20
11 -4 27 13 13 -6 83 -22 83 -13 0 -11 -44 4 -59 10 -10 7 -12 -13 -9 -20 2
-26 9 -28 36 -4 43 -22 41 -22 -3 0 -19 -4 -35 -10 -35 -5 0 -10 20 -10 45 0
38 3 45 20 45 11 0 20 5 20 10 0 6 7 10 15 10 8 0 15 -4 15 -10z m-392 -22
c21 -21 13 -38 -18 -38 -16 0 -30 -4 -30 -10 0 -5 16 -9 36 -8 38 1 55 21 35
41 -15 15 -14 27 4 27 8 0 15 -5 15 -12 0 -9 3 -9 12 0 7 7 18 12 26 12 12 0
12 -3 -1 -23 -13 -20 -13 -25 1 -45 12 -19 12 -22 0 -22 -8 0 -19 5 -26 12 -8
8 -12 8 -12 1 0 -14 -90 -15 -107 -1 -30 25 -8 78 32 78 12 0 26 -5 33 -12z
m132 -33 c0 -33 -4 -45 -15 -45 -11 0 -15 12 -15 45 0 33 4 45 15 45 11 0 15
-12 15 -45z m130 0 c0 -33 -4 -45 -15 -45 -11 0 -15 12 -15 45 0 33 4 45 15
45 11 0 15 -12 15 -45z"/>
<path d="M1387 3134 c-15 -15 -7 -45 11 -42 9 2 17 12 17 22 0 20 -16 31 -28
20z"/>
<path d="M1947 3143 c-11 -10 -8 -51 3 -58 6 -4 10 8 10 29 0 37 -2 41 -13 29z"/>
<path d="M1620 3115 c0 -16 6 -25 15 -25 9 0 15 9 15 25 0 16 -6 25 -15 25 -9
0 -15 -9 -15 -25z"/>
<path d="M1717 3134 c-15 -15 -7 -45 11 -42 9 2 17 12 17 22 0 20 -16 31 -28
20z"/>
<path d="M2030 3115 c0 -16 6 -25 15 -25 9 0 15 9 15 25 0 16 -6 25 -15 25 -9
0 -15 -9 -15 -25z"/>
<path d="M1683 2970 c-91 -55 -80 -184 19 -236 76 -40 175 18 185 109 9 81
-49 147 -132 147 -22 0 -54 -9 -72 -20z m120 -72 c23 -27 22 -59 -4 -92 -17
-22 -28 -27 -58 -24 -27 2 -36 7 -35 21 0 9 1 41 2 71 l2 55 38 -6 c20 -3 45
-14 55 -25z"/>
<path d="M1736 2879 c-10 -52 -7 -89 7 -89 38 0 63 80 35 108 -20 20 -35 13
-42 -19z"/>
<path d="M1328 2402 l-428 -247 0 -490 0 -490 422 -244 c233 -135 427 -244
433 -244 6 0 200 109 433 244 l422 244 0 490 0 491 -42 24 c-34 19 -600 345
-773 446 l-40 23 -427 -247z m767 -155 l330 -192 5 -335 5 -335 72 -95 72 -95
-157 -5 -157 -6 -253 -147 c-140 -82 -258 -147 -262 -145 -5 2 -157 89 -339
193 l-331 190 0 390 0 390 333 192 c182 105 337 192 342 192 6 0 159 -87 340
-192z"/>
<path d="M1422 2237 l-332 -192 0 -380 0 -380 328 -189 c180 -104 332 -189
337 -189 6 0 118 62 250 139 l240 139 -174 3 -174 2 -69 -40 c-38 -23 -73 -40
-77 -38 -5 2 -115 64 -245 138 l-236 135 0 195 0 195 -55 114 c-31 63 -53 116
-51 119 3 2 47 0 98 -5 l93 -10 199 114 c169 97 203 113 220 104 12 -5 120
-68 241 -138 l220 -128 5 -155 5 -155 79 -103 c43 -56 82 -105 87 -108 5 -3 9
130 9 308 l0 313 -277 160 c-152 88 -302 174 -333 192 l-56 32 -332 -192z"/>
<path d="M1572 2103 c-101 -58 -181 -107 -179 -109 2 -2 68 -10 147 -18 140
-14 144 -14 179 6 l36 21 90 -52 c50 -28 123 -61 163 -73 l72 -21 66 -89 c36
-48 70 -88 75 -88 5 0 9 57 9 128 l0 127 -182 105 c-100 58 -207 119 -238 137
l-55 32 -183 -106z"/>
<path d="M1190 1978 c1 -7 19 -47 40 -88 l39 -75 1 66 c0 62 2 67 28 79 l27
13 -25 8 c-43 12 -110 10 -110 -3z"/>
<path d="M1736 1977 c-15 -11 -8 -15 54 -34 78 -22 79 -19 9 21 -38 22 -48 24
-63 13z"/>
<path d="M1330 1961 l-35 -18 -3 -86 -3 -86 72 -148 71 -148 164 -137 164
-138 66 0 c65 0 67 1 230 96 l164 96 0 125 0 126 -72 98 c-49 65 -83 102 -102
109 -40 14 -44 13 -18 -6 21 -15 22 -21 22 -182 l0 -167 -147 -83 c-107 -62
-150 -82 -163 -75 -9 4 -76 42 -149 83 l-131 75 0 170 0 170 95 54 c53 29 95
55 93 57 -2 1 -53 8 -113 14 -61 6 -124 13 -140 15 -19 3 -44 -2 -65 -14z"/>
<path d="M1575 1885 l-90 -53 0 -167 0 -167 95 -55 c52 -30 113 -65 135 -78
l40 -23 135 78 135 78 3 165 2 166 -45 27 c-62 36 -220 84 -275 83 -36 -1 -64
-12 -135 -54z m238 -136 l48 -30 -3 -56 c-3 -56 -4 -57 -52 -86 l-48 -30 -54
29 -54 29 0 57 0 58 48 30 c26 16 52 30 57 30 6 0 32 -14 58 -31z"/>
<path d="M1712 1743 c-41 -24 -42 -26 -42 -78 0 -52 1 -54 42 -78 l43 -25 40
24 c39 23 40 25 40 79 0 54 -1 56 -40 79 l-40 24 -43 -25z"/>
<path d="M1280 1563 l0 -168 188 -108 c103 -59 210 -121 237 -137 l50 -29 55
32 55 32 -59 3 -58 3 -166 139 -165 138 -63 131 c-34 72 -65 131 -68 131 -3 0
-6 -75 -6 -167z"/>
<path d="M2240 1500 l0 -115 -158 -90 -157 -90 50 -3 c28 -2 109 -2 180 0
l130 3 63 38 62 38 0 56 c0 54 -2 60 -72 152 -40 53 -78 102 -85 111 -10 12
-12 -8 -13 -100z"/>
<path d="M2430 1319 c0 -44 0 -45 -62 -79 l-63 -35 63 -3 c34 -2 89 -2 123 0
l60 3 -55 74 c-31 41 -58 76 -61 79 -3 3 -5 -15 -5 -39z"/>
<path d="M460 2450 c0 -5 5 -10 10 -10 6 0 10 5 10 10 0 6 -4 10 -10 10 -5 0
-10 -4 -10 -10z"/>
<path d="M2740 2455 c0 -27 3 -28 38 -19 39 11 17 43 -30 44 -5 0 -8 -11 -8
-25z"/>
<path d="M2830 2455 c0 -16 6 -25 15 -25 9 0 15 9 15 25 0 16 -6 25 -15 25 -9
0 -15 -9 -15 -25z"/>
<path d="M650 2435 c0 -16 6 -25 15 -25 9 0 15 9 15 25 0 16 -6 25 -15 25 -9
0 -15 -9 -15 -25z"/>
<path d="M888 2453 c7 -3 16 -2 19 1 4 3 -2 6 -13 5 -11 0 -14 -3 -6 -6z"/>
<path d="M625 2280 c-67 -27 -97 -132 -55 -198 53 -84 176 -79 230 10 53 87
-13 199 -115 197 -22 0 -49 -4 -60 -9z m102 -76 c3 -8 -3 -24 -12 -34 -10 -11
-13 -20 -7 -20 17 0 25 -39 12 -55 -7 -9 -30 -15 -53 -15 l-40 0 7 53 c3 28 6
61 6 72 0 18 5 20 41 17 23 -3 43 -10 46 -18z"/>
<path d="M667 2203 c-4 -3 -7 -31 -7 -60 0 -46 3 -54 17 -51 24 4 29 39 8 50
-15 9 -15 11 1 22 10 8 15 20 11 30 -7 17 -19 21 -30 9z"/>
<path d="M2754 2271 c-34 -21 -64 -75 -64 -116 0 -63 58 -125 123 -132 85 -10
147 49 147 141 0 43 -4 53 -39 87 -34 35 -44 39 -87 39 -30 0 -61 -7 -80 -19z
m120 -68 c4 -9 0 -23 -9 -32 -13 -14 -15 -13 -15 12 0 17 -5 27 -15 27 -20 0
-35 -32 -35 -73 0 -40 20 -53 53 -35 20 10 21 10 8 -5 -16 -20 -62 -22 -79 -5
-17 17 -15 79 4 106 19 27 78 31 88 5z"/>
<path d="M589 1261 c-35 -34 -39 -44 -39 -87 0 -154 185 -199 256 -62 19 36
18 72 -3 115 -22 48 -66 73 -127 73 -43 0 -53 -4 -87 -39z m136 -60 c0 -13 -6
-26 -14 -29 -9 -3 -11 1 -7 16 10 31 -14 39 -36 12 -38 -47 -11 -119 35 -90
20 12 21 12 8 -3 -35 -43 -101 3 -86 60 10 43 35 64 69 61 25 -2 31 -8 31 -27z"/>
<path d="M2628 893 c7 -3 16 -2 19 1 4 3 -2 6 -13 5 -11 0 -14 -3 -6 -6z"/>
<path d="M2980 875 c0 -16 6 -25 15 -25 9 0 15 9 15 25 0 16 -6 25 -15 25 -9
0 -15 -9 -15 -25z"/>
<path d="M618 873 c7 -3 16 -2 19 1 4 3 -2 6 -13 5 -11 0 -14 -3 -6 -6z"/>
<path d="M1683 580 c-115 -70 -63 -250 72 -250 76 0 135 59 135 135 0 106
-116 171 -207 115z m112 -79 c0 -13 -5 -26 -11 -28 -7 -2 -10 6 -7 22 4 18 1
25 -10 25 -23 0 -41 -29 -41 -66 0 -45 17 -63 44 -46 27 16 35 15 20 -3 -15
-18 -61 -20 -78 -3 -17 17 -15 80 4 106 23 33 79 28 79 -7z"/>
<path d="M1780 165 c0 -16 6 -25 15 -25 9 0 15 9 15 25 0 16 -6 25 -15 25 -9
0 -15 -9 -15 -25z"/>
<path d="M1578 183 c7 -3 16 -2 19 1 4 3 -2 6 -13 5 -11 0 -14 -3 -6 -6z"/>
</g>
</svg>
